<svg xmlns="http://www.w3.org/2000/svg" viewBox="0 0 84.56 55.79"><defs><style>.cls-1{fill:#fff;}</style></defs><g id="Layer_2" data-name="Layer 2"><g id="Layer_1-2" data-name="Layer 1"><g id="Regular-M"><path class="cls-1" d="M58.46,27.06c6.67,0,12.41-6,12.41-13.72S65.1,0,58.46,0,46.05,5.8,46.08,13.41,51.82,27.06,58.46,27.06Zm-35.71.71c5.8,0,10.79-5.21,10.79-11.94s-5-11.61-10.79-11.61S11.92,9.28,12,15.89,17,27.77,22.75,27.77Zm-17.29,28H29c-3.22-4.68.72-14.12,7.42-19.27a24.22,24.22,0,0,0-13.68-4C8.75,32.52,0,42.85,0,51.45,0,54.24,1.52,55.79,5.46,55.79Zm33.51,0H78c4.87,0,6.61-1.39,6.61-4.12,0-8-10-19.06-26.1-19.06s-26.13,11-26.13,19.06C32.33,54.4,34.07,55.79,39,55.79Z"/></g></g></g></svg>