<svg xmlns="http://www.w3.org/2000/svg" viewBox="0 0 57.13 57.09"><defs><style>.cls-1{fill:#fff;}</style></defs><g id="Layer_2" data-name="Layer 2"><g id="Layer_1-2" data-name="Layer 1"><path class="cls-1" d="M57.13,25.76a1.72,1.72,0,0,0-1.54-1.69c-.21,0-.41-.09-.62-.14-.83-.21-1.65-.42-2.47-.65a8,8,0,0,1-1.47-.5c-.68-.35-.78-1.09-1-1.72l-1-2.42c-.17-.41-.39-.79-.52-1.2-.2-.69.22-1.23.54-1.78s.62-1,.92-1.51.63-1.14,1-1.68a1.89,1.89,0,0,0-.1-2c-1.32-1.33-2.63-2.67-4-4a1.8,1.8,0,0,0-2.22-.29c-.32.22-.65.43-1,.62-1,.56-1.91,1.1-2.85,1.66a1.61,1.61,0,0,1-1.63,0c-.59-.3-1.17-.63-1.78-.88s-1.49-.52-2.24-.79a1.48,1.48,0,0,1-1-1c-.14-.5-.26-1-.4-1.51-.26-1-.5-2-.78-2.94A1.55,1.55,0,0,0,31.31,0c-.42,0-.83,0-1.25,0H25.6a1.26,1.26,0,0,0-1.28,1c-.15.49-.28,1-.41,1.5-.24.9-.46,1.81-.72,2.71a2,2,0,0,1-1.47,1.7,10.66,10.66,0,0,0-1.3.47l-1.27.53c-.39.18-.79.33-1.15.54a1.49,1.49,0,0,1-1.61,0c-.53-.29-1-.61-1.56-.92s-1.1-.69-1.67-1a3.39,3.39,0,0,0-1.53-.63,1.5,1.5,0,0,0-1.23.41c-.51.55-1.08,1.06-1.61,1.59C8,8.74,7.15,9.56,6.35,10.4a1.64,1.64,0,0,0-.15,2c.31.52.61,1,.92,1.55.46.8,1,1.58,1.38,2.4a1.84,1.84,0,0,1,0,1.62c-.16.37-.41.71-.57,1.09C7.54,20,7.16,21,6.8,22a1.52,1.52,0,0,1-1.15,1l-1.79.48-2.41.61A1.62,1.62,0,0,0,0,25.54c0,2,0,4,0,5.95a1.5,1.5,0,0,0,1.1,1.34l1.82.49a16.22,16.22,0,0,0,2.12.57,2.3,2.3,0,0,1,2,1.8,20.33,20.33,0,0,0,1.41,3.37A1.88,1.88,0,0,1,8.4,41c-.45.73-.88,1.48-1.31,2.23-.29.49-.55,1-.87,1.46a1.69,1.69,0,0,0,0,1.89c.43.47.88.93,1.33,1.38,1,1,2.05,2,3.1,3a1.25,1.25,0,0,0,1.54.09l1.53-.9c.82-.48,1.64-1,2.47-1.44a1.52,1.52,0,0,1,1.46-.16c.74.36,1.5.69,2.26,1a10.51,10.51,0,0,0,1.45.54A2,2,0,0,1,23,51.37c.23.69.4,1.4.59,2.11s.46,1.69.69,2.54a1.37,1.37,0,0,0,1.38,1c1.95,0,3.9,0,5.84,0a1.29,1.29,0,0,0,1.25-.81,14.28,14.28,0,0,0,.44-1.45c.23-.86.45-1.72.68-2.58s.48-1.7,1.45-2c.44-.16.9-.29,1.33-.46a18.72,18.72,0,0,0,2.14-.94,2.06,2.06,0,0,1,2.37,0c.46.32,1,.59,1.45.89s1.13.69,1.7,1c.41.22.84.39,1.27.6a3.15,3.15,0,0,0,.82-.35c.57-.46,1.1-1,1.63-1.46.84-.82,1.64-1.67,2.49-2.48A1.86,1.86,0,0,0,51,44.76a13.82,13.82,0,0,0-.77-1.35c-.52-.9-1.06-1.79-1.59-2.68a1.58,1.58,0,0,1-.07-1.42c.2-.55.51-1.06.75-1.6.35-.84.7-1.68,1-2.53a1.37,1.37,0,0,1,.73-.91,20.64,20.64,0,0,1,2-.65c1-.27,1.91-.5,2.85-.76a1.43,1.43,0,0,0,1.2-1.57C57.12,29.45,57.08,27.6,57.13,25.76ZM28.6,41.12A12.6,12.6,0,1,1,41.19,28.51,12.59,12.59,0,0,1,28.6,41.12Z"/></g></g></svg>