<svg xmlns="http://www.w3.org/2000/svg" viewBox="0 0 64.96 68.17"><defs><style>.cls-1{fill:#fff;}</style></defs><g id="Layer_2" data-name="Layer 2"><g id="Layer_1-2" data-name="Layer 1"><g id="Regular-M"><path class="cls-1" d="M13.3,3.91h39C52.11,1.33,50.66,0,47.87,0H17.72C14.94,0,13.48,1.33,13.3,3.91ZM6.76,12.3H58.23C57.78,9.54,56.47,8,53.44,8H11.54C8.51,8,7.21,9.54,6.76,12.3ZM9.51,68.17H55.44C61.78,68.17,65,65,65,58.78V26.57c0-6.21-3.18-9.36-9.52-9.36H9.51C3.15,17.21,0,20.33,0,26.57V58.78C0,65,3.15,68.17,9.51,68.17Z"/></g></g></g></svg>